<svg width="18" height="18" viewBox="0 0 18 18" fill="none" xmlns="http://www.w3.org/2000/svg">
<g clip-path="url(#clip0_1288_400)">
<path d="M0.311246 8.39709L4.713 10.5908C4.88325 10.6748 5.08425 10.6688 5.247 10.5736L9.165 8.29584L6.7935 10.3973C6.67275 10.5046 6.60375 10.6576 6.60375 10.8188V15.9376C6.60375 16.4776 7.293 16.7048 7.61625 16.2758L9.519 13.7461L14.2245 16.4258C14.5545 16.6156 14.9775 16.4251 15.054 16.0478L17.9887 1.42284C18.0765 0.983344 17.6392 0.624844 17.2327 0.788344L0.357746 7.36959C-0.0952535 7.54659 -0.124504 8.18034 0.311246 8.39709ZM16.6837 2.21034L14.1045 15.0631L9.64575 12.5236C9.40275 12.3848 9.09 12.4463 8.9175 12.6743L7.72875 14.2546V11.0716L14.142 5.38959C14.6497 4.94034 14.0662 4.14159 13.4865 4.48209L4.944 9.44859L1.95 7.95684L16.6837 2.21034Z" fill="#1A1E21"/>
</g>
<defs>
<clipPath id="clip0_1288_400">
<rect width="18" height="18" fill="white"/>
</clipPath>
</defs>
</svg>
